<?xml version="1.0" encoding="UTF-8" standalone="no"?>
<svg
   fill="none"
   height="92"
   viewBox="0 0 92 92"
   width="92"
   version="1.1"
   id="svg19"
   sodipodi:docname="apple.svg"
   inkscape:version="1.1.2 (0a00cf5339, 2022-02-04)"
   xmlns:inkscape="http://www.inkscape.org/namespaces/inkscape"
   xmlns:sodipodi="http://sodipodi.sourceforge.net/DTD/sodipodi-0.dtd"
   xmlns:xlink="http://www.w3.org/1999/xlink"
   xmlns="http://www.w3.org/2000/svg"
   xmlns:svg="http://www.w3.org/2000/svg">
  <defs
     id="defs23" />
  <sodipodi:namedview
     id="namedview21"
     pagecolor="#ffffff"
     bordercolor="#666666"
     borderopacity="1.0"
     inkscape:pageshadow="2"
     inkscape:pageopacity="0.0"
     inkscape:pagecheckerboard="0"
     showgrid="false"
     inkscape:zoom="7"
     inkscape:cx="85.642857"
     inkscape:cy="41.571429"
     inkscape:window-width="1920"
     inkscape:window-height="1051"
     inkscape:window-x="1920"
     inkscape:window-y="0"
     inkscape:window-maximized="1"
     inkscape:current-layer="svg19" />
  <linearGradient
     id="a">
    <stop
       offset="0"
       stop-color="#f452ff"
       id="stop2" />
    <stop
       offset="1"
       stop-color="#832bc1"
       id="stop4" />
  </linearGradient>
  <linearGradient
     id="b"
     gradientUnits="userSpaceOnUse"
     x1="45.4871"
     x2="45.4871"
     xlink:href="#a"
     y1="49.4424"
     y2="71.8338"
     gradientTransform="matrix(1.7633987,0,0,1.7633987,-34.718028,-35.130396)" />
  <linearGradient
     id="c"
     gradientUnits="userSpaceOnUse"
     x1="45.4809"
     x2="45.4809"
     xlink:href="#a"
     y1="36.252"
     y2="47.2137"
     gradientTransform="matrix(1.7633987,0,0,1.7633987,-34.718028,-35.130396)" />
  <linearGradient
     id="d"
     gradientUnits="userSpaceOnUse"
     x1="45.5053"
     x2="45.5053"
     xlink:href="#a"
     y1="20.1436"
     y2="65.8633"
     gradientTransform="matrix(1.7633987,0,0,1.7633987,-34.718028,-35.130396)" />
  <linearGradient
     id="e"
     gradientUnits="userSpaceOnUse"
     x1="45.4915"
     x2="45.4915"
     xlink:href="#a"
     y1="27.9287"
     y2="56.7317"
     gradientTransform="matrix(1.7633987,0,0,1.7633987,-34.718028,-35.130396)" />
  <path
     d="M 55.585971,58.499549 C 55.428852,57.085127 54.95732,56.06359 54.01443,55.120702 c -1.767983,-1.846455 -4.871742,-3.064434 -8.52568,-3.064434 -3.653761,0 -6.757519,1.178655 -8.525503,3.064434 -0.903742,0.982212 -1.414422,1.964425 -1.571541,3.378847 -0.314414,2.750197 -0.117978,5.107508 0.196442,8.918566 0.314238,3.614438 0.903566,8.447032 1.650013,13.318774 0.550004,3.496643 0.982213,5.382597 1.375099,6.718372 0.667975,2.200193 3.06461,4.085971 6.87549,4.085971 3.811058,0 6.247017,-1.925103 6.875492,-4.085971 0.392886,-1.335775 0.825095,-3.221729 1.375099,-6.718372 0.746622,-4.911066 1.335951,-9.704336 1.650188,-13.318774 0.353562,-3.811058 0.51068,-6.168369 0.196442,-8.918566 z"
     fill="url(#b)"
     id="path11"
     style="fill:url(#b);stroke-width:1.7634" />
  <path
     d="m 55.147943,38.461168 c 0,5.343275 -4.321737,9.665013 -9.665012,9.665013 -5.343274,0 -9.665011,-4.321738 -9.665011,-9.665013 0,-5.343097 4.321737,-9.664835 9.665011,-9.664835 5.343275,0 9.665012,4.360885 9.665012,9.664835 z"
     fill="url(#c)"
     id="path13"
     style="fill:url(#c);stroke-width:1.7634" />
  <path
     d="M 45.370603,0.39080186 C 22.81885,0.4692731 4.3532448,18.77776 4.039006,41.329513 c -0.2357653,18.269163 11.43282,33.906101 27.737732,39.642261 0.392886,0.157118 0.785771,-0.19662 0.746447,-0.589505 -0.196442,-1.414245 -0.432209,-2.828667 -0.589327,-4.24309 -0.07864,-0.51068 -0.392886,-0.903565 -0.825095,-1.139331 C 18.222022,69.381482 9.2249853,56.455595 9.3821047,41.486632 9.578547,21.84237 25.60837,5.8518712 45.213307,5.6947524 65.289779,5.5376335 81.673162,21.803046 81.673162,41.840193 c 0,14.811844 -8.957713,27.541289 -21.726482,33.159655 -0.471533,0.196442 -0.785947,0.628651 -0.825094,1.139331 -0.196443,1.414423 -0.392886,2.828845 -0.589328,4.24309 -0.07864,0.432209 0.353562,0.746623 0.746446,0.589505 C 75.426323,75.314085 87.016437,59.912913 87.016437,41.840193 86.937789,18.974203 68.275742,0.35147807 45.370603,0.39080186 Z"
     fill="url(#d)"
     id="path15"
     style="fill:url(#d);stroke-width:1.7634" />
  <path
     d="M 44.422071,14.141432 C 29.728199,14.691436 17.941642,26.831731 17.7452,41.525602 c -0.117799,9.665013 4.714622,18.22984 12.140118,23.298201 0.35356,0.235589 0.864418,-0.03932 0.864418,-0.471533 -0.117965,-1.689336 -0.117965,-3.182406 -0.03932,-4.753946 0.03932,-0.510682 -0.157118,-0.982213 -0.550004,-1.335775 C 25.64223,54.019282 22.892033,47.968885 23.049153,41.289837 23.36339,29.503279 32.831959,19.916915 44.618516,19.445382 57.426609,18.934702 67.95604,29.22819 67.95604,41.879164 c 0,6.443283 -2.750197,12.25809 -7.111259,16.383385 -0.353562,0.353562 -0.550004,0.825093 -0.550004,1.335775 0.07846,1.532217 0.03932,3.025286 -0.03932,4.714622 -0.03932,0.432209 0.471531,0.746446 0.864417,0.471533 C 68.427397,59.794766 73.259991,51.347733 73.259991,41.839841 73.299311,26.203079 60.216127,13.51278 44.422071,14.141432 Z"
     fill="url(#e)"
     id="path17"
     style="fill:url(#e);stroke-width:1.7634" />
</svg>
